<?xml version="1.0" encoding="utf-8"?>
<!-- Generator: Adobe Illustrator 28.0.0, SVG Export Plug-In . SVG Version: 6.00 Build 0)  -->
<svg version="1.1" id="Capa_1" xmlns="http://www.w3.org/2000/svg" xmlns:xlink="http://www.w3.org/1999/xlink" x="0px" y="0px"
	 viewBox="0 0 64 64" style="enable-background:new 0 0 64 64;" xml:space="preserve">
<style type="text/css">
	.st0{fill:#A5A3A5;}
</style>
<path class="st0" d="M19.8,2.7c0.4,0,0.8,0,1.1,0c0.3,0.2,0.6,0.3,0.9,0.5c0.7,0.5,1,1.2,1,2c0,1,0,2,0,2.9c2.3,0,4.5,0,6.7,0
	c0-0.8,0-1.6,0-2.4c-0.1-1.5,0.5-2.5,2-3c0.3,0,0.7,0,1,0c1.5,0.5,2,1.6,1.9,3.1c0,0.8,0,1.5,0,2.4c2.3,0,4.5,0,6.7,0
	c0-0.8,0-1.6,0-2.4C41,4.3,41.6,3.2,43,2.7c0.3,0,0.7,0,1,0c1.5,0.5,2,1.5,2,3c0,0.8,0,1.6,0,2.5c0.8,0,1.5,0,2.3,0
	c4,0,6.9,2.9,6.9,6.9c0,13.1,0,26.2,0,39.3c0,4-2.9,6.9-6.9,6.9c-10.9,0-21.7,0-32.6,0c-4,0-6.9-2.9-6.9-6.9c0-13.1,0-26.2,0-39.3
	c0-4,2.9-6.9,7-6.9c0.7,0,1.4,0,2.2,0c0-1.1,0-2,0-3c0-0.8,0.3-1.5,0.9-1.9C19.2,3,19.5,2.9,19.8,2.7z M33.2,32c-4,0-8.1,0-12.1,0
	c-1.2,0-2.1,0.6-2.5,1.7c-0.5,1.6,0.7,3.2,2.5,3.2c2,0,4.1,0,6.1,0c6,0,11.9,0,17.9,0c0.8,0,1.5-0.2,2.1-0.8
	c0.7-0.8,0.9-1.6,0.5-2.6S46.5,32,45.4,32C41.3,32,37.3,32,33.2,32z M33.2,46.6c4,0,8.1,0,12.1,0c1.6,0,2.7-1.2,2.6-2.7
	c-0.1-1.3-1.2-2.2-2.7-2.2c-6.4,0-12.7,0-19.1,0c-1.7,0-3.3,0-5,0c-1.2,0-2.1,0.6-2.4,1.6c-0.6,1.6,0.6,3.2,2.4,3.2
	C25.1,46.6,29.1,46.6,33.2,46.6z M27.1,27.1L27.1,27.1c2.1,0,4.1,0,6.2,0c1.4,0,2.4-1.1,2.4-2.4s-1-2.4-2.4-2.4c-4.1,0-8.2,0-12.4,0
	c-0.5,0-1,0.2-1.5,0.5c-0.8,0.6-1.1,1.7-0.8,2.7c0.3,0.9,1.2,1.6,2.2,1.6C23,27.1,25,27.1,27.1,27.1z"/>
</svg>
